<svg width="351" height="351" viewBox="0 0 351 351" fill="none" xmlns="http://www.w3.org/2000/svg">
<mask id="mask0_158_60" style="mask-type:luminance" maskUnits="userSpaceOnUse" x="30" y="63" width="143" height="238">
<path d="M172.871 63.6179H30.3145V300.542H172.871V63.6179Z" fill="white"/>
</mask>
<g mask="url(#mask0_158_60)">
<path fill-rule="evenodd" clip-rule="evenodd" d="M177.933 109.761L199.984 122.492V147.954L177.933 160.685L155.883 147.954V122.492L177.933 109.761ZM229.595 164.374L251.646 177.105V202.567L229.595 215.298L207.545 202.567V177.105L229.595 164.374ZM107.082 95.2427L129.133 107.973V133.436L107.082 146.166L85.0326 133.436V107.973L107.082 95.2427ZM87.5318 163.636L103.185 172.675V190.749L87.5318 199.788L71.8772 190.749V172.675L87.5318 163.636ZM130.337 193.527L145.991 202.564V220.639L130.337 229.678L114.683 220.639V202.564L130.337 193.527ZM290.488 169.547L306.142 178.585V196.66L290.488 205.697L274.835 196.66V178.585L290.488 169.547ZM125.075 242.611L137.213 249.62V263.636L125.075 270.644L112.936 263.636V249.62L125.075 242.611Z" fill="#003972"/>
<path fill-rule="evenodd" clip-rule="evenodd" d="M132.227 152.566L145.344 160.139V175.284L132.227 182.857L119.111 175.284V160.139L132.227 152.566ZM261.012 213.807L271.892 220.088V232.65L261.012 238.931L250.133 232.65V220.088L261.012 213.807ZM92.3686 213.807L104.842 221.007V235.41L92.3686 242.611L79.8958 235.41V221.007L92.3686 213.807ZM49.1947 160.276L58.7911 165.817V176.898L49.1947 182.439L39.5975 176.898V165.817L49.1947 160.276ZM109.712 273.932L118.031 278.734V288.34L109.712 293.143L101.394 288.34V278.734L109.712 273.932ZM208.283 221.098L217.599 226.476V237.233L208.283 242.611L198.968 237.233V226.476L208.283 221.098ZM258.49 150.627L266.847 155.451V165.101L258.49 169.926L250.133 165.101V155.451L258.49 150.627ZM233.766 127.01L242.443 132.019V142.038L233.766 147.048L225.09 142.038V132.019L233.766 127.01ZM194.651 72.8596L202.05 77.1313V85.6737L194.651 89.9453L187.252 85.6737V77.1313L194.651 72.8596ZM267.585 110.035L278.179 116.152V128.384L267.585 134.501L256.991 128.384V116.152L267.585 110.035Z" fill="#D17128"/>
<path fill-rule="evenodd" clip-rule="evenodd" d="M54.3632 199.04L63.0013 204.027V214.001L54.3632 218.988L45.7252 214.001V204.027L54.3632 199.04ZM165.236 229.299L175.153 235.023V246.474L165.236 252.199L155.319 246.474V235.023L165.236 229.299ZM231.658 224.893L239.658 229.511V238.747L231.658 243.366L223.659 238.747V229.511L231.658 224.893ZM237.194 96.8344L246.791 102.375V113.457L237.194 118.997L227.596 113.457V102.375L237.194 96.8344ZM285.904 132.998L296.14 138.907V150.727L285.904 156.637L275.668 150.727V138.907L285.904 132.998ZM175.153 181.701L186.66 188.345V201.632L175.153 208.276L163.645 201.632V188.345L175.153 181.701ZM142.117 73.9493L153.624 80.5929V93.8808L142.117 100.524L130.61 93.8808V80.5929L142.117 73.9493ZM63.7393 126.349L77.803 134.469V150.708L63.7393 158.829L49.6757 150.708V134.469L63.7393 126.349Z" fill="#8F8F8F"/>
<path fill-rule="evenodd" clip-rule="evenodd" d="M174.858 148.027L180.11 151.854L139.299 207.846L134.047 204.018L174.858 148.027ZM216.912 175.906L213.486 178.409L189.58 145.706L193.005 143.202L216.912 175.906ZM278.801 186.239V190.482H247.251V186.239H278.801ZM162.141 125.659L161.517 132.127L124.421 128.551L125.045 122.083L162.141 125.659ZM123.657 201.719L119.775 206.93L95.7443 189.024L99.6272 183.814L123.657 201.719ZM124.718 223.119H131.216V248.438H124.718V223.119Z" fill="#003972"/>
</g>
<path fill-rule="evenodd" clip-rule="evenodd" d="M196.801 162.342V155.844H259.548V162.342H196.801ZM246.272 111.761V105.263H284.338C286.131 105.263 287.584 106.715 287.587 108.507L287.633 135.204L281.135 135.215L281.129 131.966L281.095 111.761H246.272ZM196.801 206.702V200.203H259.548V206.702H196.801ZM196.801 251.864V245.366H259.548V251.864H196.801Z" fill="#140000"/>
<path fill-rule="evenodd" clip-rule="evenodd" d="M285.408 155.185L298.528 155.098V174.167H270.614V141.506H285.348L285.408 155.185ZM288.758 141.506L298.528 151.556H288.758V141.506Z" fill="#140000"/>
<path fill-rule="evenodd" clip-rule="evenodd" d="M285.408 201.02L298.528 200.934V220.002H270.614V187.342H285.348L285.408 201.02ZM288.758 187.342L298.528 197.391H288.758V187.342Z" fill="#140000"/>
<path fill-rule="evenodd" clip-rule="evenodd" d="M285.408 245.962L298.528 245.876V264.944H270.614V232.284H285.348L285.408 245.962ZM288.758 232.284L298.528 242.334H288.758V232.284Z" fill="#140000"/>
<path fill-rule="evenodd" clip-rule="evenodd" d="M202.524 96.2057C202.524 95.1728 203.235 93.9614 203.929 93.3001C204.58 92.6792 205.741 92.5768 206.711 92.5768H215.923C216.897 92.5768 218.062 92.6826 218.714 93.309C219.402 93.9694 220.11 95.1776 220.11 96.2057H236.512C238.706 96.2057 240.488 97.9872 240.488 100.182V123.773C240.488 125.968 238.706 127.749 236.512 127.749H200.358C198.164 127.749 196.382 125.968 196.382 123.773V100.182C196.382 97.9872 198.164 96.2057 200.358 96.2057H202.524ZM236.859 102.347L235 99.5555H201.59L199.732 102.347H236.859Z" fill="#140000"/>
<path fill-rule="evenodd" clip-rule="evenodd" d="M225.779 261.057V277.956L165.568 313.707V34.6616L225.779 70.4119V88.1891H218.087V74.7906L173.26 48.1751V300.193L218.087 273.578V261.057H225.779Z" fill="#140000"/>
</svg>
